<svg width="375" height="84" viewBox="0 0 375 84" fill="none" xmlns="http://www.w3.org/2000/svg">
<g clip-path="url(#clip0_569_8827)">
<path d="M375 81.9273C361.456 83.033 325.191 83.9578 288.48 78.8111C242.591 72.3778 203.155 64.7382 137.906 68.1559C72.6578 71.5736 48.5182 75.7955 9.99572e-06 71.9757" stroke="#BF9D7D" stroke-width="0.5"/>
<path d="M375 74.4483C361.456 75.554 325.191 76.4788 288.48 71.3321C242.591 64.8988 203.155 57.2592 137.906 60.6769C72.6578 64.0946 48.5182 68.3165 9.99572e-06 64.4967" stroke="#BF9D7D" stroke-width="0.5"/>
<path d="M375 66.9692C361.456 68.075 325.191 68.9998 288.48 63.8531C242.591 57.4198 203.155 49.7802 137.906 53.1979C72.6578 56.6156 48.5182 60.8375 9.99572e-06 57.0177" stroke="#BF9D7D" stroke-width="0.5"/>
<path d="M375 59.4902C361.456 60.596 325.191 61.5208 288.48 56.3741C242.591 49.9408 203.155 42.3012 137.906 45.7189C72.6578 49.1366 48.5182 53.3585 9.99572e-06 49.5387" stroke="#BF9D7D" stroke-width="0.5"/>
<path d="M375 52.0112C361.456 53.117 325.191 54.0418 288.48 48.8951C242.591 42.4618 203.155 34.8222 137.906 38.2399C72.6578 41.6576 48.5182 45.8795 9.99572e-06 42.0597" stroke="#BF9D7D" stroke-width="0.5"/>
<path d="M375 44.5322C361.456 45.638 325.191 46.5628 288.48 41.4161C242.591 34.9828 203.155 27.3432 137.906 30.7609C72.6578 34.1786 48.5182 38.4005 9.99572e-06 34.5807" stroke="#BF9D7D" stroke-width="0.5"/>
<path d="M375 37.0532C361.456 38.159 325.191 39.0838 288.48 33.9371C242.591 27.5038 203.155 19.8642 137.906 23.2819C72.6578 26.6996 48.5182 30.9215 9.99572e-06 27.1017" stroke="#BF9D7D" stroke-width="0.5"/>
<path d="M375 29.5742C361.456 30.68 325.191 31.6048 288.48 26.4581C242.591 20.0248 203.155 12.3852 137.906 15.8029C72.6578 19.2206 48.5182 23.4424 9.99572e-06 19.6227" stroke="#BF9D7D" stroke-width="0.5"/>
<path d="M375 22.0952C361.456 23.201 325.191 24.1257 288.48 18.9791C242.591 12.5458 203.155 4.90617 137.906 8.32388C72.6578 11.7416 48.5182 15.9634 9.99572e-06 12.1437" stroke="#BF9D7D" stroke-width="0.5"/>
<path d="M375 14.6165C361.456 15.7222 325.191 16.647 288.48 11.5003C242.591 5.06699 203.155 -2.57259 137.906 0.845116C72.6578 4.26282 48.5182 8.48469 9.99572e-06 4.6649" stroke="#BF9D7D" stroke-width="0.5"/>
</g>
<defs>
<clipPath id="clip0_569_8827">
<rect width="375" height="84" fill="white"/>
</clipPath>
</defs>
</svg>
